<svg width="1800" height="2400" xmlns="http://www.w3.org/2000/svg">
  <defs>
    <linearGradient id="headerGradient" x1="0%" y1="0%" x2="100%" y2="100%">
      <stop offset="0%" style="stop-color:#6a11cb;stop-opacity:1" />
      <stop offset="100%" style="stop-color:#2575fc;stop-opacity:1" />
    </linearGradient>
    <filter id="shadow" x="-20%" y="-20%" width="140%" height="140%">
      <feDropShadow dx="0" dy="4" stdDeviation="10" flood-color="rgba(0,0,0,0.1)"/>
    </filter>
  </defs>
  
  <!-- Background -->
  <rect width="1800" height="2400" fill="#f5f7fa"/>
  
  <!-- Header -->
  <rect x="20" y="20" width="1760" height="150" rx="15" fill="url(#headerGradient)" filter="url(#shadow)"/>
  <text x="40" y="60" font-family="Segoe UI, sans-serif" font-size="35" font-weight="700" fill="white">全球AI就业市场与薪资趋势2025</text>
  <rect x="1520" y="30" width="200" height="40" rx="20" fill="rgba(255,255,255,0.2)"/>
  <text x="1620" y="55" font-family="Segoe UI, sans-serif" font-size="18" font-weight="600" fill="white" text-anchor="middle">总记录数: 700</text>
  <text x="40" y="100" font-family="Segoe UI, sans-serif" font-size="16" fill="white" opacity="0.9">本看板提供全球AI职位的深入分析，帮助您了解各职位的技能要求、对比不同国家的就业机会，</text>
  <text x="40" y="125" font-family="Segoe UI, sans-serif" font-size="16" fill="white" opacity="0.9">并规划职业发展路径。数据来源于2025年全球AI职位市场趋势。</text>
  
  <!-- Stats Cards -->
  <g id="statsCards">
    <!-- Card 1 -->
    <rect x="20" y="200" width="420" height="120" rx="12" fill="white" filter="url(#shadow)"/>
    <text x="40" y="230" font-family="Segoe UI, sans-serif" font-size="16" fill="#858796">最高平均薪资</text>
    <text x="40" y="265" font-family="Segoe UI, sans-serif" font-size="32" font-weight="700" fill="#4e73df">$178,500</text>
    <text x="40" y="290" font-family="Segoe UI, sans-serif" font-size="14" fill="#858796">AI架构师职位</text>
    
    <!-- Card 2 -->
    <rect x="460" y="200" width="420" height="120" rx="12" fill="white" filter="url(#shadow)"/>
    <text x="480" y="230" font-family="Segoe UI, sans-serif" font-size="16" fill="#858796">最热门技能</text>
    <text x="480" y="265" font-family="Segoe UI, sans-serif" font-size="32" font-weight="700" fill="#4e73df">Python</text>
    <text x="480" y="290" font-family="Segoe UI, sans-serif" font-size="14" fill="#858796">出现在87%的职位要求中</text>
    
    <!-- Card 3 -->
    <rect x="900" y="200" width="420" height="120" rx="12" fill="white" filter="url(#shadow)"/>
    <text x="920" y="230" font-family="Segoe UI, sans-serif" font-size="16" fill="#858796">职位最多国家</text>
    <text x="920" y="265" font-family="Segoe UI, sans-serif" font-size="32" font-weight="700" fill="#4e73df">美国</text>
    <text x="920" y="290" font-family="Segoe UI, sans-serif" font-size="14" fill="#858796">占全部职位的32%</text>
    
    <!-- Card 4 -->
    <rect x="1340" y="200" width="420" height="120" rx="12" fill="white" filter="url(#shadow)"/>
    <text x="1360" y="230" font-family="Segoe UI, sans-serif" font-size="16" fill="#858796">远程工作比例</text>
    <text x="1360" y="265" font-family="Segoe UI, sans-serif" font-size="32" font-weight="700" fill="#4e73df">48%</text>
    <text x="1360" y="290" font-family="Segoe UI, sans-serif" font-size="14" fill="#858796">提供完全远程或混合工作</text>
  </g>
  
  <!-- Country Distribution Chart -->
  <g id="countryChart">
    <rect x="20" y="350" width="860" height="400" rx="12" fill="white" filter="url(#shadow)"/>
    <text x="40" y="385" font-family="Segoe UI, sans-serif" font-size="20" font-weight="600" fill="#5a5c69">各国AI职位分布</text>
    
    <!-- Chart bars -->
    <rect x="60" y="420" width="44" height="220" fill="rgba(78, 115, 223, 0.7)"/>
    <rect x="120" y="470" width="44" height="170" fill="rgba(54, 185, 204, 0.7)"/>
    <rect x="180" y="500" width="44" height="140" fill="rgba(28, 200, 138, 0.7)"/>
    <rect x="240" y="545" width="44" height="95" fill="rgba(246, 194, 62, 0.7)"/>
    <rect x="300" y="555" width="44" height="85" fill="rgba(231, 74, 59, 0.7)"/>
    <rect x="360" y="565" width="44" height="75" fill="rgba(133, 135, 150, 0.7)"/>
    <rect x="420" y="570" width="44" height="70" fill="rgba(86, 61, 124, 0.7)"/>
    <rect x="480" y="575" width="44" height="65" fill="rgba(0, 123, 255, 0.7)"/>
    <rect x="540" y="590" width="44" height="50" fill="rgba(40, 167, 69, 0.7)"/>
    <rect x="600" y="595" width="44" height="45" fill="rgba(220, 53, 69, 0.7)"/>
    
    <!-- Labels -->
    <text x="82" y="660" font-family="Segoe UI, sans-serif" font-size="12" fill="#6c757d" text-anchor="middle">美国</text>
    <text x="142" y="660" font-family="Segoe UI, sans-serif" font-size="12" fill="#6c757d" text-anchor="middle">中国</text>
    <text x="202" y="660" font-family="Segoe UI, sans-serif" font-size="12" fill="#6c757d" text-anchor="middle">印度</text>
    <text x="262" y="660" font-family="Segoe UI, sans-serif" font-size="12" fill="#6c757d" text-anchor="middle">德国</text>
    <text x="322" y="660" font-family="Segoe UI, sans-serif" font-size="12" fill="#6c757d" text-anchor="middle">英国</text>
    <text x="382" y="660" font-family="Segoe UI, sans-serif" font-size="12" fill="#6c757d" text-anchor="middle">加拿大</text>
    <text x="442" y="660" font-family="Segoe UI, sans-serif" font-size="12" fill="#6c757d" text-anchor="middle">法国</text>
    <text x="502" y="660" font-family="Segoe UI, sans-serif" font-size="12" fill="#6c757d" text-anchor="middle">澳大利亚</text>
    <text x="562" y="660" font-family="Segoe UI, sans-serif" font-size="12" fill="#6c757d" text-anchor="middle">瑞士</text>
    <text x="622" y="660" font-family="Segoe UI, sans-serif" font-size="12" fill="#6c757d" text-anchor="middle">新加坡</text>
    
    <!-- Values -->
    <text x="82" y="410" font-family="Segoe UI, sans-serif" font-size="12" fill="#333" text-anchor="middle">220</text>
    <text x="142" y="460" font-family="Segoe UI, sans-serif" font-size="12" fill="#333" text-anchor="middle">150</text>
    <text x="202" y="490" font-family="Segoe UI, sans-serif" font-size="12" fill="#333" text-anchor="middle">120</text>
    <text x="262" y="535" font-family="Segoe UI, sans-serif" font-size="12" fill="#333" text-anchor="middle">95</text>
    <text x="322" y="545" font-family="Segoe UI, sans-serif" font-size="12" fill="#333" text-anchor="middle">85</text>
    <text x="382" y="555" font-family="Segoe UI, sans-serif" font-size="12" fill="#333" text-anchor="middle">75</text>
    <text x="442" y="560" font-family="Segoe UI, sans-serif" font-size="12" fill="#333" text-anchor="middle">70</text>
    <text x="502" y="565" font-family="Segoe UI, sans-serif" font-size="12" fill="#333" text-anchor="middle">65</text>
    <text x="562" y="580" font-family="Segoe UI, sans-serif" font-size="12" fill="#333" text-anchor="middle">50</text>
    <text x="622" y="585" font-family="Segoe UI, sans-serif" font-size="12" fill="#333" text-anchor="middle">45</text>
  </g>
  
  <!-- Salary Distribution Chart -->
  <g id="salaryChart">
    <rect x="920" y="350" width="860" height="400" rx="12" fill="white" filter="url(#shadow)"/>
    <text x="940" y="385" font-family="Segoe UI, sans-serif" font-size="20" font-weight="600" fill="#5a5c69">职位类型薪资分布</text>
    
    <!-- Radar chart simulation with polygons -->
    <g transform="translate(1350, 550)">
      <!-- Outer circle -->
      <circle cx="0" cy="0" r="150" fill="none" stroke="rgba(0,0,0,0.1)" stroke-width="1"/>
      <circle cx="0" cy="0" r="100" fill="none" stroke="rgba(0,0,0,0.05)" stroke-width="1"/>
      <circle cx="0" cy="0" r="50" fill="none" stroke="rgba(0,0,0,0.05)" stroke-width="1"/>
      
      <!-- Data polygon -->
      <polygon points="0,-125 88,-88 125,0 88,88 0,125 -88,88 -125,0 -88,-88" 
               fill="rgba(78, 115, 223, 0.2)" stroke="rgba(78, 115, 223, 1)" stroke-width="2"/>
      
      <!-- Data points -->
      <circle cx="0" cy="-125" r="4" fill="rgba(78, 115, 223, 1)"/>
      <circle cx="88" cy="-88" r="4" fill="rgba(78, 115, 223, 1)"/>
      <circle cx="125" cy="0" r="4" fill="rgba(78, 115, 223, 1)"/>
      <circle cx="88" cy="88" r="4" fill="rgba(78, 115, 223, 1)"/>
      <circle cx="0" cy="125" r="4" fill="rgba(78, 115, 223, 1)"/>
      <circle cx="-88" cy="88" r="4" fill="rgba(78, 115, 223, 1)"/>
      <circle cx="-125" cy="0" r="4" fill="rgba(78, 115, 223, 1)"/>
      <circle cx="-88" cy="-88" r="4" fill="rgba(78, 115, 223, 1)"/>
      
      <!-- Labels -->
      <text x="0" y="-170" font-family="Segoe UI, sans-serif" font-size="11" fill="#6c757d" text-anchor="middle">数据科学家</text>
      <text x="120" y="-120" font-family="Segoe UI, sans-serif" font-size="11" fill="#6c757d" text-anchor="start">机器学习工程师</text>
      <text x="160" y="5" font-family="Segoe UI, sans-serif" font-size="11" fill="#6c757d" text-anchor="start">AI研究员</text>
      <text x="120" y="120" font-family="Segoe UI, sans-serif" font-size="11" fill="#6c757d" text-anchor="start">AI产品经理</text>
      <text x="0" y="170" font-family="Segoe UI, sans-serif" font-size="11" fill="#6c757d" text-anchor="middle">NLP工程师</text>
      <text x="-120" y="120" font-family="Segoe UI, sans-serif" font-size="11" fill="#6c757d" text-anchor="end">计算机视觉工程师</text>
      <text x="-160" y="5" font-family="Segoe UI, sans-serif" font-size="11" fill="#6c757d" text-anchor="end">AI顾问</text>
      <text x="-120" y="-120" font-family="Segoe UI, sans-serif" font-size="11" fill="#6c757d" text-anchor="end">数据工程师</text>
    </g>
  </g>
  
  <!-- Skills Cloud -->
  <g id="skillsCloud">
    <rect x="20" y="780" width="1760" height="300" rx="12" fill="white" filter="url(#shadow)"/>
    <text x="40" y="815" font-family="Segoe UI, sans-serif" font-size="20" font-weight="600" fill="#5a5c69">热门技能需求</text>
    
    <!-- Skill tags -->
    <rect x="60" y="840" width="80" height="35" rx="17" fill="#e0e7ff"/>
    <text x="100" y="862" font-family="Segoe UI, sans-serif" font-size="15" fill="#4f46e5" text-anchor="middle">Python</text>
    
    <rect x="160" y="840" width="100" height="35" rx="17" fill="#e0e7ff"/>
    <text x="210" y="862" font-family="Segoe UI, sans-serif" font-size="15" fill="#4f46e5" text-anchor="middle">机器学习</text>
    
    <rect x="280" y="840" width="110" height="35" rx="17" fill="#e0e7ff"/>
    <text x="335" y="862" font-family="Segoe UI, sans-serif" font-size="15" fill="#4f46e5" text-anchor="middle">TensorFlow</text>
    
    <rect x="410" y="840" width="90" height="35" rx="17" fill="#e0e7ff"/>
    <text x="455" y="862" font-family="Segoe UI, sans-serif" font-size="15" fill="#4f46e5" text-anchor="middle">PyTorch</text>
    
    <rect x="520" y="840" width="60" height="35" rx="17" fill="#e0e7ff"/>
    <text x="550" y="862" font-family="Segoe UI, sans-serif" font-size="15" fill="#4f46e5" text-anchor="middle">SQL</text>
    
    <rect x="600" y="840" width="100" height="35" rx="17" fill="#e0e7ff"/>
    <text x="650" y="862" font-family="Segoe UI, sans-serif" font-size="15" fill="#4f46e5" text-anchor="middle">数据可视化</text>
    
    <rect x="720" y="840" width="60" height="35" rx="17" fill="#e0e7ff"/>
    <text x="750" y="862" font-family="Segoe UI, sans-serif" font-size="15" fill="#4f46e5" text-anchor="middle">AWS</text>
    
    <rect x="800" y="840" width="70" height="35" rx="17" fill="#e0e7ff"/>
    <text x="835" y="862" font-family="Segoe UI, sans-serif" font-size="15" fill="#4f46e5" text-anchor="middle">Azure</text>
    
    <rect x="890" y="840" width="80" height="35" rx="17" fill="#e0e7ff"/>
    <text x="930" y="862" font-family="Segoe UI, sans-serif" font-size="15" fill="#4f46e5" text-anchor="middle">Docker</text>
    
    <rect x="990" y="840" width="110" height="35" rx="17" fill="#e0e7ff"/>
    <text x="1045" y="862" font-family="Segoe UI, sans-serif" font-size="15" fill="#4f46e5" text-anchor="middle">Kubernetes</text>
    
    <!-- Second row -->
    <rect x="60" y="890" width="60" height="35" rx="17" fill="#e0e7ff"/>
    <text x="90" y="912" font-family="Segoe UI, sans-serif" font-size="15" fill="#4f46e5" text-anchor="middle">NLP</text>
    
    <rect x="140" y="890" width="90" height="35" rx="17" fill="#e0e7ff"/>
    <text x="185" y="912" font-family="Segoe UI, sans-serif" font-size="15" fill="#4f46e5" text-anchor="middle">深度学习</text>
    
    <rect x="250" y="890" width="70" height="35" rx="17" fill="#e0e7ff"/>
    <text x="285" y="912" font-family="Segoe UI, sans-serif" font-size="15" fill="#4f46e5" text-anchor="middle">Spark</text>
    
    <rect x="340" y="890" width="50" height="35" rx="17" fill="#e0e7ff"/>
    <text x="365" y="912" font-family="Segoe UI, sans-serif" font-size="15" fill="#4f46e5" text-anchor="middle">Git</text>
    
    <rect x="410" y="890" width="70" height="35" rx="17" fill="#e0e7ff"/>
    <text x="445" y="912" font-family="Segoe UI, sans-serif" font-size="15" fill="#4f46e5" text-anchor="middle">Linux</text>
    
    <rect x="500" y="890" width="60" height="35" rx="17" fill="#e0e7ff"/>
    <text x="530" y="912" font-family="Segoe UI, sans-serif" font-size="15" fill="#4f46e5" text-anchor="middle">Java</text>
    
    <rect x="580" y="890" width="70" height="35" rx="17" fill="#e0e7ff"/>
    <text x="615" y="912" font-family="Segoe UI, sans-serif" font-size="15" fill="#4f46e5" text-anchor="middle">Scala</text>
    
    <rect x="670" y="890" width="90" height="35" rx="17" fill="#e0e7ff"/>
    <text x="715" y="912" font-family="Segoe UI, sans-serif" font-size="15" fill="#4f46e5" text-anchor="middle">数据工程</text>
    
    <rect x="780" y="890" width="90" height="35" rx="17" fill="#e0e7ff"/>
    <text x="825" y="912" font-family="Segoe UI, sans-serif" font-size="15" fill="#4f46e5" text-anchor="middle">统计建模</text>
    
    <rect x="890" y="890" width="90" height="35" rx="17" fill="#e0e7ff"/>
    <text x="935" y="912" font-family="Segoe UI, sans-serif" font-size="15" fill="#4f46e5" text-anchor="middle">问题解决</text>
  </g>
  
  <!-- Top Jobs Chart -->
  <g id="topJobsChart">
    <rect x="20" y="1110" width="1760" height="400" rx="12" fill="white" filter="url(#shadow)"/>
    <text x="40" y="1145" font-family="Segoe UI, sans-serif" font-size="20" font-weight="600" fill="#5a5c69">薪资最高的AI职位</text>
    
    <!-- Horizontal bars -->
    <rect x="200" y="1170" width="357" height="30" fill="rgba(78, 115, 223, 0.8)"/>
    <text x="60" y="1190" font-family="Segoe UI, sans-serif" font-size="14" fill="#333">AI架构师</text>
    <text x="570" y="1190" font-family="Segoe UI, sans-serif" font-size="14" fill="#333">$178,500</text>
    
    <rect x="200" y="1210" width="345" height="30" fill="rgba(54, 185, 204, 0.8)"/>
    <text x="60" y="1230" font-family="Segoe UI, sans-serif" font-size="14" fill="#333">首席AI科学家</text>
    <text x="570" y="1230" font-family="Segoe UI, sans-serif" font-size="14" fill="#333">$172,300</text>
    
    <rect x="200" y="1250" width="337" height="30" fill="rgba(28, 200, 138, 0.8)"/>
    <text x="60" y="1270" font-family="Segoe UI, sans-serif" font-size="14" fill="#333">AI研究总监</text>
    <text x="570" y="1270" font-family="Segoe UI, sans-serif" font-size="14" fill="#333">$168,700</text>
    
    <rect x="200" y="1290" width="325" height="30" fill="rgba(246, 194, 62, 0.8)"/>
    <text x="60" y="1310" font-family="Segoe UI, sans-serif" font-size="14" fill="#333">机器学习总监</text>
    <text x="570" y="1310" font-family="Segoe UI, sans-serif" font-size="14" fill="#333">$162,500</text>
    
    <rect x="200" y="1330" width="316" height="30" fill="rgba(231, 74, 59, 0.8)"/>
    <text x="60" y="1350" font-family="Segoe UI, sans-serif" font-size="14" fill="#333">深度学习专家</text>
    <text x="570" y="1350" font-family="Segoe UI, sans-serif" font-size="14" fill="#333">$158,200</text>
    
    <rect x="200" y="1370" width="306" height="30" fill="rgba(133, 135, 150, 0.8)"/>
    <text x="60" y="1390" font-family="Segoe UI, sans-serif" font-size="14" fill="#333">AI产品负责人</text>
    <text x="570" y="1390" font-family="Segoe UI, sans-serif" font-size="14" fill="#333">$152,800</text>
    
    <rect x="200" y="1410" width="297" height="30" fill="rgba(86, 61, 124, 0.8)"/>
    <text x="60" y="1430" font-family="Segoe UI, sans-serif" font-size="14" fill="#333">计算机视觉主管</text>
    <text x="570" y="1430" font-family="Segoe UI, sans-serif" font-size="14" fill="#333">$148,600</text>
    
    <rect x="200" y="1450" width="285" height="30" fill="rgba(0, 123, 255, 0.8)"/>
    <text x="60" y="1470" font-family="Segoe UI, sans-serif" font-size="14" fill="#333">NLP首席专家</text>
    <text x="570" y="1470" font-family="Segoe UI, sans-serif" font-size="14" fill="#333">$142,300</text>
  </g>
  
  <!-- Career Path Table -->
  <g id="careerTable">
    <rect x="20" y="1540" width="1760" height="350" rx="12" fill="white" filter="url(#shadow)"/>
    <text x="40" y="1575" font-family="Segoe UI, sans-serif" font-size="20" font-weight="600" fill="#5a5c69">职业发展路径示例</text>
    
    <!-- Table header -->
    <rect x="40" y="1590" width="1720" height="40" fill="#f8f9fc"/>
    <text x="60" y="1615" font-family="Segoe UI, sans-serif" font-size="14" font-weight="600" fill="#858796">职位</text>
    <text x="300" y="1615" font-family="Segoe UI, sans-serif" font-size="14" font-weight="600" fill="#858796">平均经验要求</text>
    <text x="500" y="1615" font-family="Segoe UI, sans-serif" font-size="14" font-weight="600" fill="#858796">平均薪资</text>
    <text x="700" y="1615" font-family="Segoe UI, sans-serif" font-size="14" font-weight="600" fill="#858796">关键技能</text>
    <text x="1200" y="1615" font-family="Segoe UI, sans-serif" font-size="14" font-weight="600" fill="#858796">下一步职位</text>
    
    <!-- Table rows -->
    <line x1="40" y1="1630" x2="1760" y2="1630" stroke="#eaecf4" stroke-width="2"/>
    
    <text x="60" y="1655" font-family="Segoe UI, sans-serif" font-size="14" fill="#333">初级数据科学家</text>
    <text x="300" y="1655" font-family="Segoe UI, sans-serif" font-size="14" fill="#333">0-2年</text>
    <text x="500" y="1655" font-family="Segoe UI, sans-serif" font-size="14" fill="#333">$85,000</text>
    <text x="700" y="1655" font-family="Segoe UI, sans-serif" font-size="14" fill="#333">Python, SQL, 数据分析</text>
    <text x="1200" y="1655" font-family="Segoe UI, sans-serif" font-size="14" fill="#333">数据科学家</text>
    <line x1="40" y1="1670" x2="1760" y2="1670" stroke="#eaecf4" stroke-width="1"/>
    
    <text x="60" y="1695" font-family="Segoe UI, sans-serif" font-size="14" fill="#333">数据科学家</text>
    <text x="300" y="1695" font-family="Segoe UI, sans-serif" font-size="14" fill="#333">3-5年</text>
    <text x="500" y="1695" font-family="Segoe UI, sans-serif" font-size="14" fill="#333">$120,000</text>
    <text x="700" y="1695" font-family="Segoe UI, sans-serif" font-size="14" fill="#333">机器学习, 统计建模, 数据可视化</text>
    <text x="1200" y="1695" font-family="Segoe UI, sans-serif" font-size="14" fill="#333">高级数据科学家</text>
    <line x1="40" y1="1710" x2="1760" y2="1710" stroke="#eaecf4" stroke-width="1"/>
    
    <text x="60" y="1735" font-family="Segoe UI, sans-serif" font-size="14" fill="#333">高级数据科学家</text>
    <text x="300" y="1735" font-family="Segoe UI, sans-serif" font-size="14" fill="#333">5-8年</text>
    <text x="500" y="1735" font-family="Segoe UI, sans-serif" font-size="14" fill="#333">$145,000</text>
    <text x="700" y="1735" font-family="Segoe UI, sans-serif" font-size="14" fill="#333">深度学习, 大数据技术, 模型部署</text>
    <text x="1200" y="1735" font-family="Segoe UI, sans-serif" font-size="14" fill="#333">首席数据科学家</text>
    <line x1="40" y1="1750" x2="1760" y2="1750" stroke="#eaecf4" stroke-width="1"/>
    
    <text x="60" y="1775" font-family="Segoe UI, sans-serif" font-size="14" fill="#333">首席数据科学家</text>
    <text x="300" y="1775" font-family="Segoe UI, sans-serif" font-size="14" fill="#333">8+年</text>
    <text x="500" y="1775" font-family="Segoe UI, sans-serif" font-size="14" fill="#333">$180,000</text>
    <text x="700" y="1775" font-family="Segoe UI, sans-serif" font-size="14" fill="#333">技术领导力, 战略规划, 跨职能协作</text>
    <text x="1200" y="1775" font-family="Segoe UI, sans-serif" font-size="14" fill="#333">AI总监</text>
    <line x1="40" y1="1790" x2="1760" y2="1790" stroke="#eaecf4" stroke-width="1"/>
    
    <text x="60" y="1815" font-family="Segoe UI, sans-serif" font-size="14" fill="#333">AI总监</text>
    <text x="300" y="1815" font-family="Segoe UI, sans-serif" font-size="14" fill="#333">10+年</text>
    <text x="500" y="1815" font-family="Segoe UI, sans-serif" font-size="14" fill="#333">$220,000</text>
    <text x="700" y="1815" font-family="Segoe UI, sans-serif" font-size="14" fill="#333">团队管理, 业务战略, 创新管理</text>
    <text x="1200" y="1815" font-family="Segoe UI, sans-serif" font-size="14" fill="#333">首席AI官</text>
  </g>
  
  <!-- Footer -->
  <g id="footer">
    <line x1="20" y1="1920" x2="1780" y2="1920" stroke="#eaecf4" stroke-width="1"/>
    <text x="900" y="1960" font-family="Segoe UI, sans-serif" font-size="14" fill="#858796" text-anchor="middle">© 2025 全球AI就业市场分析 | 数据来源：Kaggle "Global AI Job Market &amp; Salary Trends 2025" 数据集</text>
    <text x="900" y="1985" font-family="Segoe UI, sans-serif" font-size="14" fill="#858796" text-anchor="middle">可视化设计用于职业规划与发展路径探索</text>
  </g>
</svg>